 <svg  version="1.0" xmlns="http://www.w3.org/2000/svg"  width="100.000000pt" height="100.000000pt" viewBox="0 0 100.000000 100.000000"  preserveAspectRatio="xMidYMid meet">  <g transform="translate(0.000000,100.000000) scale(0.100000,-0.100000)" fill="#439cdf" stroke="none"> <path d="M366 989 c-70 -17 -172 -78 -231 -139 -56 -60 -117 -172 -129 -237 -8 -45 19 -33 35 15 43 133 137 240 262 296 108 49 110 50 115 64 4 13 2 14 -52 1z"/> <path d="M582 988 c5 -14 7 -15 115 -64 106 -48 183 -125 232 -234 47 -105 46 -103 59 -108 19 -6 4 55 -34 136 -48 103 -125 182 -229 232 -86 41 -149 58 -143 38z"/> <path d="M226 771 c-13 -14 -18 -39 -19 -97 -2 -74 -1 -79 20 -82 17 -3 28 7 49 40 33 54 62 77 95 78 47 0 49 -10 49 -231 l0 -207 -34 -21 c-44 -28 -51 -47 -23 -66 26 -18 236 -22 268 -5 24 14 25 46 0 60 -51 27 -51 29 -51 244 0 144 3 205 12 214 24 24 69 14 104 -24 19 -19 34 -42 34 -49 0 -8 10 -21 22 -29 34 -24 48 -4 48 71 0 62 -11 100 -34 115 -6 4 -126 8 -267 8 -239 0 -257 -1 -273 -19z m548 -88 c3 -42 4 -78 2 -80 -1 -2 -14 18 -28 44 -42 83 -131 120 -178 73 -19 -19 -20 -33 -20 -238 0 -241 -2 -235 65 -264 29 -12 27 -13 -42 -16 -40 -2 -106 -2 -145 0 -70 3 -72 4 -43 16 67 29 65 23 65 264 0 205 -1 219 -20 238 -46 46 -134 10 -176 -72 -14 -28 -27 -48 -29 -46 -2 2 -1 38 2 81 l6 77 267 0 267 0 7 -77z"/> <path d="M240 713 l0 -26 25 23 c14 13 25 25 25 27 0 2 -11 3 -25 3 -20 0 -25 -5 -25 -27z"/> <path d="M453 722 c15 -16 17 -48 17 -242 0 -194 -2 -226 -17 -242 -15 -17 -14 -18 37 -18 51 0 52 1 37 18 -15 16 -17 48 -17 244 0 223 0 226 23 241 21 15 20 16 -37 16 -57 1 -58 0 -43 -17z"/> <path d="M691 737 c2 -1 14 -11 27 -21 22 -19 22 -19 22 2 0 17 -6 22 -27 22 -14 0 -24 -1 -22 -3z"/> <path d="M6 387 c3 -18 21 -65 40 -105 43 -94 123 -178 213 -226 62 -32 150 -60 160 -51 8 9 -22 35 -39 35 -35 0 -156 73 -212 128 -56 55 -104 132 -127 204 -16 48 -43 60 -35 15z"/> <path d="M972 408 c-5 -7 -13 -24 -17 -38 -19 -64 -78 -159 -127 -206 -53 -51 -175 -124 -208 -124 -17 0 -47 -27 -39 -35 10 -9 98 19 160 51 90 48 170 132 213 226 35 76 52 138 37 138 -5 0 -13 -6 -19 -12z"/> </g> </svg> 